# xmcd
#
# Track frame offsets: 
#        150
#        23202
#        57717
#        93647
#        111840
#        135507
#
# Disc length: 2008 seconds
#
# Revision: 2
# Processed by: cddbd v1.5.2PL0 Copyright (c) Steve Scherf et al.
# Submitted via: ExactAudioCopy v0.99pb1
#
DISCID=5107d606
DTITLE=Roy Buchanan - Buch And The Snake Stretchers
DYEAR=1992
DGENRE=Blues-Rock
TTITLE0=Sweet Dreams
TTITLE1=Down By The River
TTITLE2=Since You've Been Gone
TTITLE3=I'm A Lonesome Fugitive
TTITLE4=The Messiah Will Come Again
TTITLE5=Johnny B. Goode
EXTD=
EXTT0=
EXTT1=
EXTT2=
EXTT3=
EXTT4=
EXTT5=
PLAYORDER=
